<mxfile host="65bd71144e">
    <diagram id="LlDz35IEKoVPofUeL2fn" name="第 1 页">
        <mxGraphModel dx="2235" dy="539" grid="1" gridSize="10" guides="1" tooltips="1" connect="1" arrows="1" fold="1" page="1" pageScale="1" pageWidth="1169" pageHeight="1654" math="0" shadow="0">
            <root>
                <mxCell id="0"/>
                <mxCell id="1" parent="0"/>
                <mxCell id="2" value="" style="rounded=0;whiteSpace=wrap;html=1;" vertex="1" parent="1">
                    <mxGeometry x="350" y="70" width="170" height="400" as="geometry"/>
                </mxCell>
                <mxCell id="4" value="" style="rounded=0;whiteSpace=wrap;html=1;" vertex="1" parent="1">
                    <mxGeometry x="610" y="70" width="170" height="400" as="geometry"/>
                </mxCell>
                <mxCell id="6" value="" style="rounded=0;whiteSpace=wrap;html=1;" vertex="1" parent="1">
                    <mxGeometry x="840" y="70" width="170" height="400" as="geometry"/>
                </mxCell>
                <mxCell id="7" value="原型" style="text;html=1;strokeColor=none;fillColor=none;align=center;verticalAlign=middle;whiteSpace=wrap;rounded=0;" vertex="1" parent="1">
                    <mxGeometry x="840" y="40" width="60" height="30" as="geometry"/>
                </mxCell>
                <mxCell id="8" value="" style="shape=image;verticalLabelPosition=bottom;labelBackgroundColor=default;verticalAlign=top;aspect=fixed;imageAspect=0;image=data:image/png,iVBORw0KGgoAAAANSUhEUgAAAacAAAHMCAYAAABx3GcBAAAfgklEQVR4nO3d369s12EX8LUdO62ocOqgxKb51dw0qiLU3qS0fUJBaRUVEiigYlMBOvwNSJWuH/N4LEXi+TxyBKjYVEBFAlVEK/IAUuM0uY3aqC3XcX741nWkCNsKJ6kjNg/Onrtmzdo/Z++ZtWc+H2nk2b/W3jM32d+z1l6zVnVzc1OHEe7fvx9u3bo15hAAGOWhY18AAKSEEwDFEU4AFEc4rVxVVaGqqmNfBsCssuF0fX0960merp7ZvJhfXY/q0wJQvIfjhblDqXFZ3wkhhKOHU66C4b4OUJ6tmtPFxUW4uLg41rUsrgmiun7w0iIGUB7PnAAozsP9uwyXNts1zXljjkuP6Spz6vm6xDWppqaVrmuW4ybBtAbWti0ts608gHM2Wzg9XT3TGRxjjoufUbWVOfV8IeTDolmfW44DJd2n7bghZabl5cru/hyVzhDASZq15hQbWovp6ixxWd/ZrL+s72yV2bWtT9f9vO8ZVO7YtPYzJi/2yZa6rgUUcJIWC6cx0tpSrK0W1bdtqqn3+am1HwB2LdYhYmqzXlsZcU2pb9tchvbka3smBcA0VTwqee53TmnX8q5Ryds6NrQ12fVtn7szRNuzpr59+n4f1dUZYkiZaaB57gScu8qUGevWDF0koIBTUsQzJ6YTSsAp8iNcAIojnAAojnACoDjCCYDiCCcAiiOcACiOcAKgOMLpxFVnNJbS0M9aVdVZfS+wRjs/wo2HMDrlWXHPwbkNbTRmlPZz+l5gjbbC6fr6eiuQ0mUAOATNehmHbvJZ4nznVmtqNLUnYN22wkktCYAStA78WkqTXvpXcFwbiLc16+NRuttG7G4rM16fKydXbnqO3DnHnm/I5+v7jKl4pt74fW6feFvfdCFtxw3RdVzXNCRTzwesR9GjkqdNU+nNPN1W1/Xmhh1vb3ufltm2T7w+t60tMKaer+/ztV1LlyaU4pl6297Hy81xuf92Hden67gx5Y+defhcmzthbbLhVEqtKTXmptK2b1rbGHuj2vfGNueNcUpZbYd01ZT6TDnm0Od7cN7hPfqA48l2JS8xmObUVWM5Z2mNZaipX2Hb+bqaHvc5H7AeWx0icl3JSzJHL6yuJrg59JV3qJ5kYz/b2OaxrnIevG//sWvX+eImxTHna87pDw5Yv84f4R5b7nlO37ZmXXOTSpfjfdIyY20dInIdEHKdJNJnYGPON+TztV1Lm+aw+LlRvByvS49pKy93XHwpXQHZdr7+MnWIgHNQ3dzcjPq/9/3798OtW7eWuh5mduyaxJTzT+9kMexcY0IdOI6ie+uxv7UFUwjTa0fDey4KJSidcGIx+4SA/IDzZvgiAIojnAAojnACoDjCCYDiCCcAiiOcACiOcAKgOJ3DF5U6AOzT1TMhhBAu6zu9+/XtA0B5tsIpN/BriQF1Wd/ZBBQAp2cVzXpTg0itCWCdtmpOJdaS2NY1DYYx44BT0ToTbgjHD6u4xtT2nCm3Pj4uV3tKa2J9Nazc9Bm5adUbuekt0m1dx3WZGkDVU8+9efyzT269z+0Tb4vXpdu6jgPYy83NTd32urq62ll37969+tDuhMvsunh92z5963L75IQQ6hDC1nLufdu29L99xy0hPPlsHZ58dms5975tW/rfvuMAplr1qORTninFnSkufxhxQ9UttZa6o6bUZ+wx+zbrtdVsumpKvdc04RiALp299U5VE0hzdjVvm2m3z5BA2Wf/MaqnnpsUUprygLmtorfenNLnUfFyM736WHPNNjvl3HOJg2nfcgD2tTNNe9+PcI8xTXtXoPQtx+vTsuL1IbRP3512Whja+SE9Jj42d9zStaLNeaJOEc1yuk+qOSbXoUKHCGBuO+HU5xjhBMB5ObtmPQDKJ5wAKI5wAqA4wgmA4ggnAIojnAAojnACoDjCCYDiCCcAitMaTvEwRqV5unpm0Oy4pnIHWKdV1pxMvw5w2rLhVFqtaWoNSIgBrNNOOJ3LnE4la6buyL0AzkHRM+HGNaZ49trcPvH6dAqNrnLb9snpmt4iDY54+9hpMfadOqNrCot0Wox4u6kvgGLc3NzUzevq6ir7Pn7du3fv0FPJ13fCZXZdvL5tn751uX1yQgity23vhyzPLTz5bOty2/shywCHtFNzip83ld7EN+WZUjwZ4eUPI26IesIU7I2xx/RNXNhlyjTrm/OaxRYoxFY4xUFUejDtI54Vd0zAxdOxt82OmwuPvkDZd/9UPOV62wy4uWY7TXlAKVbZlXwfXVO6d3U6iIOpbduQUFm6U0McTG3bhoSQWhRwTNlp2uOmvbT2dIxp2rsCpW85Xp+WFa8PIXTWfuLtsbaaVNtx+9aKhsgFS1tNqu04tSjgmLLh1OUY4VS6tFbVVcs6prRW1VXLAjimoruSr0X8zKlZLlH8zKlZBiiRcJpJqYGUEkjAGpxdhwgAyiecACiOcAKgOMIJgOIIJwCKI5wAKI5wAqA4W79zys2Ae6qDvwJQrp0f4QojAI5Nsx4AxemcbFAtCoBj6GzWO+UJBwEo11azniACoASeOQFQnK1wynUlB4BDU3MCoDg707T39dYzTTsAS9sJpz7CCYCladYDoDjCCYDiCCcAiiOcACiOcAKgOMIJgOIIJwCKI5wAKM7Rw6mqqlBV1bEvA4CC7ITT9fX1QQeAretRA1QAcAZ2RiW/uLgIFxcXRigH4Gg2Y+sNnfV2ibH1qqpSgwJgY2ea9r5RyQFgaVvhlNaehtamAGBOW8+cjhVEdV3rsQfAxtG7kofgmRMA24oIJwCIbcJJ93EASrEzTXtfbz1dyQFY2k449Zk7nJqOEMIJgMbO75wOTSgBkNIhAoDiCCcAiiOcACiOcAKgOMIJgOIIJwCKI5wAKI5wOrB49PWhI7FXVWXUduCs7MznlDKf03zSYZqaqUKG/BDZj5WBc7IzQkQ62eApiWsf6RxSbv4A5WgdW69tFtwlBn49pHQsv0MNOtt1nr5rMDAucG48cwKgOEcf+LVP2hEgrkHkmuWGNN11PevpKzN3HW3HATBNtubU1qR3aE2ANK+ubWlzXdt/x5yvq8y0113uuDlo0gPOUdE1pzQg0p5uIbTXapqb+pibe1eZfZbq6j32MwCcgqLDKYTujgvxurHh0FbDmVqm8ACYT9EdIrqeH/XVJqbUOOaqoXTV5pY6J8ApKb7m1NbRIHezH9IlO94v12EiV2ZXeW3lADBd6++c2qzpd04l1krSZsOhHTVCEHrA+Si+5jRW6TWYXKeOMccAnIOTCyc3coD1K7pDBADnSTgBUBzhBEBxhBMAxRFOABRHOAFQHOF04pYakHZtfA+wLlu/c0qnZS9h2oxSLPHj3qV/MDx0BIqnq2dCCCFc1nd69+vbp1RGd4d12YRTbg6nUuZ1KsE+02kcsswpLus7m4ACKIFmvRPVVUuYGkRrrTU15p4IEliOcAKgOJtmvYuLiyKfOaV/6ca1gdwzm3gE77bRvMeWOfY6D/FMqusztIlrTG3PmXLr4+Nytae0JtZXwxr7b9Q363HfccD67Az82gRSGlTHkDZNdU02mM6t1DY1xZQyp1znvjfGrjKnTLsRwoPQaOvYEK+P38fruo5p2yc15d8o/rfN/bfrOGB9Ns16aeeHXE3q2MbcaNr2jW+MY8vs0pS55mcaU54pNZ0phvb4i3X9G4UQJn2fp/DvAJzglBlDTKl1DC3zELqaw46hr0Y2RVojGqqE7wPY36o6RMzx13DftOxzSJsK5z5H3MzV5lA909LnUfHy1M8+1x8N6bk188F6bE3TPqRDxKGnaR/aKSD3V3Z6g87dsIc+UO97GN93XO6mOLXMvm3xPrltXYHStxyvT8uK18fX2HftQzs/pMfkapB935lwgnXYCqchDh1O7Brz4N8N+U2+B1iXs3zmtHZttY22ffE9wNoIp5VyswVO2ao6RABwHoQTAMURTgAURzgBUBzhBEBxhBMAxTl6OBmkE4DU1u+c4uGLDjWXk9lJAUhtwimdMiNdBoBDaW3WK3E+JwDOw9GfOQFAqjWc1JoAOJbNM6e0Ge+QzXrx/DwAsNVb71gdIAQTADHPnAAozlY4xc14upIDcCw707Q3AdUWTEtM065ZD4DYTjj1mTucmtEhhBMAjaNP0y6UAEjpEAFAcYQTAMURTgAURzgBUBzhBEBxhBMAxRFOABRntnCqqsp06wDMYiecrq+vJ02V4ce0AMxlZ+DXi4sLU7QDcFSbcEpHIRdQAByLDhEAFEc4AVCcWcOprms99gDY26zhZNJAAOagWQ+A4mzCKe2dl/beA4BDqa6uruo4hJqAagumrmnaNesBMIfq5uZmVJq0hVPTEUI4AbCvh+cqSCgBMBcdIgAojnACoDjCCYDiCCcAiiOcACiOcAKgOMIJgOIIJwCKkw0nM+ACcExbI0QIJQBKsFVzuri4MBI5AEfnmRMAxRFOABRHOAFQHOEEQHGEEwDFEU4AFOct733vez91+/btEMKbv3O6e/duCCGEu3fvhrt374ZmW+P1118Pjz322MEvFIDzUd3c3IyaX/3+/fvh1q1bS10PAGjWA6A8wgmA4ggnAIojnAAojnACoDjCCYDiCCcAiiOcACiOcIJIVVWhqqpjXwacvYfTFfFU7XPNivt09czm/WV9Z5Yy2U/zb+LfY1ddjxo0BVjAVjhdX19vBVK6PFVzA4xD6pjSP4zP8V50Wd/Z+98jV8NwYwfmcHbNelX1Zhg1r7Z9SlFKoOc0QVTX9ealSQyYw1Y4zdWMtyb+0Acoz84zp8aUJr30r/yhzzO6nkl1lTnlfHX9oPaUiv/ob943+zfv021DtH2++LlP+gwoPib3fChXZld5ueO6rjN37BRxTaqpaaXrmuW4STCtgbVtS8tsKw9YmZubmzr3urq6yq6/d+9enXMnXHYuD10XL0/dNkTTsNe2rW9d27Gpvutsltuuf8p31vY9LfF9hhC2Xum2vuV0Xd9xfdu69u0zdn9gOdma0xwdIYb+1d3VWSKtAcRldm0bIq4FLf0HdldtpfkcY6+/r8yx9vk+644vsO8ZVO7YOqn9dJU/5lqGHFtVlRoXFCDblfzQz57im3Nb01LuBt61rSRLXNuSZc75fU690ddRc52wgPOz1SEi15V8qqG9zLpuhOlzldxzmNy2LnN0JtunjPQ6m8+/T6+8OXr0Tf0+xxjak6/tmRRwPqqrq6u6CaRcGKW1qK5p2vse/MeGbJ+7M0QIw37jFO8Tb+/qJNFlSoeIocfG67sCZmjzae5cbXIdE4bs0/f7qK7OEEPKTANtTM1LTQ3KUN3c3Iz6f2JXOMHa6ekHZWjtSg7nSChBGc5uhAgAyiecACiOcAKgOMIJgOIIJwCKI5wAKI5wAqA4wumMGRZoP2OGY/JdwzjZgV8b5zj54LkwTM+uvhHq0yGrxoxi7ruGcbbCKTfwq4CCN8VjKgLL0qw30qGbZ5Y4n1pT3pSvxKjpsIytcFJLAqAErTPhhlB+WHVNrdA1rUI60+qQMuP1uXJy5abnyJ1z7PmGfL6+z5gaMhVIbhqRXIVhyHFDdB3XNe3JlPP1HaNiBIfXOWVG7plTKVNmpE1T8XLfthDyM612Hde1Llfuvtc5Zl1uOXct3WWGHx7zYLltKvvctvS/fcd1GXK+IeUPPV/X/kPK7Gom1YQK05zMlBljbgBt+6a1jbE3lX1vQnPexKaU1XZIV02pz5RjDn2+JY3p0Qc8sDNN+7lrQslD7m1NjWHsPbY5ZuyxbedramdttaKp5wPKcjK99eYIk66pvufQV96hAnHsZxvbPNZVzoP37T9M7TrfmJAcer59qBXBMqqrq6s6/W1TI9chopRnTiHkOwV0besKn9wNu+vZUtsxXdfS1Uli6PmGfr6uMpt9HxwX7z+880N6TK5DRXfHhq5nNfnz9Jc5/nx9HTu6r6U/nAQYjNfZISKnpHBiP8e+aU45/z6dHub+vEPLG9prEnjgZDpEMN7agimE9prdUufrvpZh5QklGE84cRT73LCnHCogYF1OpkMEAKdDOAFQHOEEQHGEEwDFEU4AFEc4AVAc4XTizmmMwHP6rHDqWsPJILDrd+wRIA7NgL1wOtScAChONpzUmtbv3GpNDbUnOA074ZSb/RYADsnYejN5unpma/myvrNZd1nf2don3pYe01ZmWkbbOdpUTz0XQgihfvbJrfe5feJt8bp0W9dxQ3Qdl5433j71fMCK3Nzc1M3r6uoq+z5+3bt3r2bbnXDZurzEtmY5XRcLIeyue/LZOjz57NZy7n3btvS/fcd1GXK+IeXnzpf77MC67NSc4udNmviGSWswfbWYoXK1q/S8Y7XVNLpqSn2mHHPo8wHrshVO6Yy4gmm4uNltrnCaq5yhqqeemxQaU5vW2s7X1fS4z/mA9dCVfAZtz4G69tvnHEPUI3utxUGxjzhkqqpqvYau8zXbhlxPGqLn2ksRTk11dXVVpzWkuGkv3Waa9l25zhC57Wnz39Dj4m1DOlI04ht1W82kWU73STXH5Go1nR0bOsKiq7PF0M4SY84HrEd1c3Mz6v/Jwmk+czYBtjn2zXrK+dNa1dBa3bE/KzAf4XQkuVrRqdknLHQXh/MmnAAojg4RABRHOAFQHOEEQHGEEwDFEU4AFEc4AVAc4QRAcbYGfs3NgGvw1+mGzrW0xEgRfT+Abca8O8SICn0jPHQN8gqcp50pM4TRfLoGgT22sQPDLikd6w9As96MpgbREsMXlTTGnBoRMFbnZINqUXTVrkoKQOC0dDbrmXBwmLjG1PacKbe+b/DXvik1cuIwyYXH2Ka8fQKob/BWTXlAm9aZcBmubxbceH38vmuOprSsoU2Gm/mbMiGUdpJY+plT1zxRuWkxABo7NSfmN+WZUjox4bGm1dCsBxzDVoeIXFdyjqcJpWP2+KvruvUFsBS99QqVPo+Kl6uqKqYbOMASqqurqzrtBNHIPYMy2WC7rkDpW47Xp2XF60Po/gFtLrT6njMtVQvKPUfqe86k2zkQgplwASiQZj0AiiOcACiOcAKgOMIJgOIIJwCKI5wAKI5wAqA4wgmA4pxkOBneB2DddsLp+vp69QPAGpQUYN12RiW/uLgIFxcXqw8oANZrM7be0Flv1zK2XjqxHgDrsTPZYN+o5ACwtK1wSmtPQ2tTADCnrWdOpxREdV3rsQewUifZlTwEz5wA1uxkwwmA9dqEk+7jAJSiurq6qtNOEI3cMyhdyQFY2uZ3TkOtIZyajhDCCWCddn7ndAqEEsC66RABQHGEEwDFEU4AFEc4AVAc4QRAcYQTAMURTgAURzgVJB5FfeiI6lVVGX0dODk78zmlTmkajWPrGrkiHW6pmfJjyA+K/egYODU7I0S0jbNHu1zNJRcY5pgCGKZ1bL22WXDXMLZeY4nBX7vKHHK+3D77lGmAW+AUeeYEQHGKH/g1bgZragjps5u25XRbV/Pb1DLHfgYA+mVrTm1NeofWNFk1r7ZQyC0369L38bo5yhz7GeakSQ84VZr1VkwHC+BUCScAinMS4bRE7eGQNZK2GpBmO+BcPVTyb5mam3bzyv1INV7fdoNP189dZrycbks/Q1uZADzQ+junNmv6nVNOybWRNBSHXOfYnoMAa3ASzXpDlV5zSWtxQ48RTMCpKf53TnNyEwdYh7OqOQGwDsIJgOIIJwCKI5wAKI5wAqA4wgmA4ggnAIqz9TundCijEqbNOFVPV8+EEEK4rO/07te3z1hDZtcNwe/CgOPZhFNuDqdS5nU6RZf1nU1AlcZUHMCxnXSzXkk3/6nXMnetKQQ1IqB8Jx1OAKzT1qjkQ545HWpU8rimETeBxTWJdJ/c+q4y4uWu87W9H/s50mttnieN+Wxt5Q65nnQqj67tbfsAHMTNzU3dvK6urrLv49e9e/fqQ7oTLus74TK7vmt56Lrccttx8frcPl2mljn1s3cJIfSuy+0DcCitHSIuLi6K6RDRVitY6plS2/mWeP4zpcy0trXEdQEc06qnzDjnm3LaNAhwSk6mQ8SUWlRJvfnGaHs+FkJ+WnqAtamurq7qpumu1A4RjbSGMKbTQK6zQd9vjdKOE7ljpnSM6OqA0XVduetJr6HrB7S50Ir369sOcChbvfWGOFQ4AXC+TqZZD4DTIZwAKI5wAqA4wgmA4ggnAIojnAAojnACoDjCCYDiHD2cDLcDQGpr4Nd4+KJDjUZemxIcgETrlBmlTJcBwPlpbdZr5nMCgEM7+jMnAEi1hpNaEwDHsnnmlDbjHbJZr+kUYe4gAEJIeusdqwOEYAIg5pkTAMXZCqe4GU9XcgCOpbq6uqrT3zeF0N7Et8Q07Zr1AIhVNzc3o1Jh7nBqRocQTgA0Hu7fZVlCCYCUDhEAFEc4AVAc4QRAcYQTAMURTgAURzgBUBzhBEBxZgunqqpMtw7ALHbC6fr6etJUGX5MC8BcHsoN9mqKdgCOaVNzSkchF1AAHIsOEQAU5yFzNgFQmllrTnVd67EHwN5mDSeTBgIwB8+cACjOQ/G07Llu5QBwaFsz4cYBJZgAOJbq5uZm1EOi+/fvh1u3bu0W9MOOEJ45AbCvh/t3GUYoATAXHSIAKI5wAqA4wgmA4ggnAIojnAAozkMv3f/zY18DAGx5y/fe+H+f+utPPB6eeOLxQQe8/vrr4bHHHlv4sgA4Z2/5zqvf/dQ3vvmt8MTj7wzvefe7ew8QTgAs7eEQQvjC818M3//+98Nf/uUb4W9/9G8ZVw+Ao3rLY3/tnZ8KIYS/eOWV8KUvfTm8+OIL4cd//G3h9u3b2QPUnABY2tbwRff//OVw72vfDI888sixrgcAdsfW+8LzXwyvvvp/wkv374d3/cRPHOOaADhz2d85/emf3Qv/+vrfhh/84AeHvh4AaP8R7r/5d/8+/Oaz/+GQ1wIAIYSeESJ+89nfCr//hS8e6loAIITQE04vvPC18Nxv/cfwve9971DXAwD9Y+t95rP/Lfyn3/4vh7gWAAghDBz49T//9mfCt156aelrAYAQwsBwuvuHXwmf+ezvLH0tABBCGDFlxmf/6++EF7/+jSWvBQBCCCPC6c/+973w33/395a8FgAIIYycbPB3f+/z4bvf/b9LXQsAhBBGhtOXvnw3/P4Xnl/qWgAghJAZW6/P83/w5fD3nlziUgDgTaNqTiG8WXt66VvfXOJaACCEMCGcXnnl2+Erf3h3iWsBgBDChHAKIYQ/+opwAmA5k8Lpj//oK3NfByfiiUerzfvPv+/t4fPve/sRr+aBkq5lLeJ/Szi0SeH0p3/yJ+FrL9yb+1qK8cSjx76CdXri0Sq8/Fq9Wf7o17+T3W9qUOwTMG3XMsaHfuPj2XXNa47y4jIPta3tWl5+rRZQHM3o3nohhPCDH7wRXvzaC+H9tz4w9/Uc1TmEUnqzicPkUD769e9MCpmpxy3lQ7/x8fDVT3+udbnruCFldpU/5zYo0aSaUwghfOPrL855HYsYGzYvv/bm61Q1NZvm1bbPPmXHPv++t89SY5nDvtcy5038q5/+XDbE0uD46qc/tznvEtu6rqWh9sSxTA6nl17SnTyEN2/Kba/SLV1rKiWYQtjvWtpqRENqScA0k5r1QgjhlZdf3rz/V48+s3n/L1+7s7Oc26fruGZ7n7Rm1NR64vXN+5df236fbptq6g0+/qxtn7vrO2uOG/O9NX8F5645DtPmffxXc3NMuryvuJkuDpC29ftsW9LQJj1gmMk1p29/+5XN++am2Pbf5ibavOKbaW6fIZ549EEzXBou8br0fbrfseQ+dxxGXd9ZV3l9msDJPXtqAid9n+43pyZA0mD66Ne/s3mlz5natvUdN4XQgeOYXHN67dVXt5bTv+Tjm2WuppQaenNtpDWhYwVNV/PdkBt51+fu+r72EdeCjtEhIjb3c6klOkzEz2hyYSXAYH7Tw+m1V/t3isSBNddNN26eO1Y4LXlzHxvYa7NEkMzdlNfXG08wwTImN+u98cYbO+tytaYQQnbdvuLnSnEtamoZpcs9n2v7vtvM0UmjrYwpvbrmbH7LGVru1A4sXd2yp5SZ9qSLy19i2xAl1K45T9X7P/g3Jv0vr6qq8D+f3x0pou1mObS2tG9niLZ94u1tnSRyYbVUjWxqJ5L4+H3Dqa9jRLy9q5NEvM+QG1naaaFZHtIhIvf8qavsofquPe1+na5Lt3WV2Xdcs72tu/mc26Z+Blja5HB661vfGv7H//qDua+HlVvrzWyJ617rd9FY+/WzbpOb9R599G1zXgcnYo03M8GUt/brZ92mh9PbhBOnYYmbsBs77GdyOL3jHe+c8zoAYGNyOL3ziSfmvA4A2Jj8O6efvvWe8PhfnfNSAOBNk2tOt97/k3NeBwBsTAqnRx55JHzgA7fmvhYACCFMDKcPfeinwwd/6rQmGgSgHJPC6fbP/szc1wEAG5PC6SMfvj33dQDAxuhwevyd7wg/9xHhBMByRofThz98O7z3Pe9Z4loAIIQwIZx+/uc+vMR1AMDGqHD6yIdvh1/8hZ9f6loAIIQwMpx+6WMfDT/2Y39lqWsBgBDCiHD64E99IPzyL31syWsBgBDCiHD6xN/9lfCT73vvktcCACGEgeF0+2d/JnzyE7+y9LUAQAhhYDj9g1/9ZHj3u9619LUAQAhhQDh98hN/J/zDX/37h7gWAAgh9ITTrVvvD0/+2j8KP/qjP3Ko6wGA7nD69ad+LfziL/zNQ10LAIQQOsLpn//TfxJ+/al/fMhrAYAQQks4ffyXPxb+xcU/Cw8/PHkWdwCY7P8DGxyFdU/pIBwAAAAASUVORK5CYII=;" vertex="1" parent="1">
                    <mxGeometry x="-20" y="70" width="430" height="467.61" as="geometry"/>
                </mxCell>
                <mxCell id="9" value="" style="rounded=0;whiteSpace=wrap;html=1;" vertex="1" parent="1">
                    <mxGeometry x="350" y="70" width="170" height="400" as="geometry"/>
                </mxCell>
                <mxCell id="10" value="对象实例" style="text;html=1;strokeColor=none;fillColor=none;align=center;verticalAlign=middle;whiteSpace=wrap;rounded=0;" vertex="1" parent="1">
                    <mxGeometry x="350" y="40" width="60" height="30" as="geometry"/>
                </mxCell>
                <mxCell id="11" value="函数" style="text;html=1;strokeColor=none;fillColor=none;align=center;verticalAlign=middle;whiteSpace=wrap;rounded=0;" vertex="1" parent="1">
                    <mxGeometry x="610" y="40" width="60" height="30" as="geometry"/>
                </mxCell>
                <mxCell id="12" value="" style="rounded=0;whiteSpace=wrap;html=1;" vertex="1" parent="1">
                    <mxGeometry x="370" y="100" width="120" height="100" as="geometry"/>
                </mxCell>
                <mxCell id="13" value="stu1" style="text;html=1;strokeColor=none;fillColor=none;align=center;verticalAlign=middle;whiteSpace=wrap;rounded=0;" vertex="1" parent="1">
                    <mxGeometry x="370" y="100" width="110" height="30" as="geometry"/>
                </mxCell>
                <mxCell id="14" value="__proto__: Stu.prototype" style="text;html=1;strokeColor=none;fillColor=none;align=left;verticalAlign=middle;whiteSpace=wrap;rounded=0;" vertex="1" parent="1">
                    <mxGeometry x="370" y="170" width="140" height="30" as="geometry"/>
                </mxCell>
                <mxCell id="15" value="" style="rounded=0;whiteSpace=wrap;html=1;" vertex="1" parent="1">
                    <mxGeometry x="630" y="100" width="120" height="100" as="geometry"/>
                </mxCell>
                <mxCell id="16" value="Person" style="text;html=1;strokeColor=none;fillColor=none;align=center;verticalAlign=middle;whiteSpace=wrap;rounded=0;" vertex="1" parent="1">
                    <mxGeometry x="630" y="100" width="110" height="30" as="geometry"/>
                </mxCell>
                <mxCell id="17" value="prototype:&amp;nbsp;&lt;span style=&quot;text-align: center;&quot;&gt;Stu.prototype&lt;/span&gt;" style="text;html=1;strokeColor=none;fillColor=none;align=left;verticalAlign=middle;whiteSpace=wrap;rounded=0;" vertex="1" parent="1">
                    <mxGeometry x="630" y="140" width="110" height="30" as="geometry"/>
                </mxCell>
                <mxCell id="19" value="Person" style="text;html=1;strokeColor=none;fillColor=none;align=center;verticalAlign=middle;whiteSpace=wrap;rounded=0;" vertex="1" parent="1">
                    <mxGeometry x="630" y="100" width="110" height="30" as="geometry"/>
                </mxCell>
                <mxCell id="20" value="" style="rounded=0;whiteSpace=wrap;html=1;" vertex="1" parent="1">
                    <mxGeometry x="630" y="253.81" width="120" height="100" as="geometry"/>
                </mxCell>
                <mxCell id="21" value="Stu" style="text;html=1;strokeColor=none;fillColor=none;align=center;verticalAlign=middle;whiteSpace=wrap;rounded=0;" vertex="1" parent="1">
                    <mxGeometry x="630" y="253.81" width="110" height="30" as="geometry"/>
                </mxCell>
                <mxCell id="22" value="prototype:&amp;nbsp;&lt;span style=&quot;text-align: center;&quot;&gt;Stu.prototype&lt;/span&gt;" style="text;html=1;strokeColor=none;fillColor=none;align=left;verticalAlign=middle;whiteSpace=wrap;rounded=0;" vertex="1" parent="1">
                    <mxGeometry x="630" y="288.81" width="110" height="30" as="geometry"/>
                </mxCell>
                <mxCell id="23" value="__proto__: Person" style="text;html=1;strokeColor=none;fillColor=none;align=left;verticalAlign=middle;whiteSpace=wrap;rounded=0;" vertex="1" parent="1">
                    <mxGeometry x="630" y="323.81" width="110" height="30" as="geometry"/>
                </mxCell>
                <mxCell id="24" value="" style="rounded=0;whiteSpace=wrap;html=1;" vertex="1" parent="1">
                    <mxGeometry x="865" y="100" width="120" height="100" as="geometry"/>
                </mxCell>
                <mxCell id="26" value="Person.prototype" style="text;html=1;strokeColor=none;fillColor=none;align=center;verticalAlign=middle;whiteSpace=wrap;rounded=0;" vertex="1" parent="1">
                    <mxGeometry x="865" y="100" width="110" height="20" as="geometry"/>
                </mxCell>
                <mxCell id="27" value="__proto__: Object,prototype" style="text;html=1;strokeColor=none;fillColor=none;align=left;verticalAlign=middle;whiteSpace=wrap;rounded=0;" vertex="1" parent="1">
                    <mxGeometry x="865" y="170" width="165" height="30" as="geometry"/>
                </mxCell>
                <mxCell id="33" value="" style="rounded=0;whiteSpace=wrap;html=1;" vertex="1" parent="1">
                    <mxGeometry x="860" y="260" width="120" height="100" as="geometry"/>
                </mxCell>
                <mxCell id="30" value="Stu.prototype" style="text;html=1;strokeColor=none;fillColor=none;align=center;verticalAlign=middle;whiteSpace=wrap;rounded=0;" vertex="1" parent="1">
                    <mxGeometry x="860" y="258.81" width="110" height="30" as="geometry"/>
                </mxCell>
                <mxCell id="32" value="__proto__: Person.prototype" style="text;html=1;strokeColor=none;fillColor=none;align=left;verticalAlign=middle;whiteSpace=wrap;rounded=0;" vertex="1" parent="1">
                    <mxGeometry x="860" y="325" width="160" height="30" as="geometry"/>
                </mxCell>
                <mxCell id="34" value="__proto__: Function.prototype" style="text;html=1;strokeColor=none;fillColor=none;align=left;verticalAlign=middle;whiteSpace=wrap;rounded=0;" vertex="1" parent="1">
                    <mxGeometry x="630" y="170" width="170" height="30" as="geometry"/>
                </mxCell>
            </root>
        </mxGraphModel>
    </diagram>
</mxfile>